<?xml version="1.0" encoding="utf-8" standalone="no"?>
<!DOCTYPE svg PUBLIC "-//W3C//DTD SVG 1.1//EN"
  "http://www.w3.org/Graphics/SVG/1.1/DTD/svg11.dtd">
<!-- Created with matplotlib (http://matplotlib.org/) -->
<svg height="504pt" version="1.1" viewBox="0 0 504 504" width="504pt" xmlns="http://www.w3.org/2000/svg" xmlns:xlink="http://www.w3.org/1999/xlink">
 <defs>
  <style type="text/css">
*{stroke-linecap:butt;stroke-linejoin:round;stroke-miterlimit:100000;}
  </style>
 </defs>
 <g id="figure_1">
  <g id="patch_1">
   <path d="M 0 504 
L 504 504 
L 504 0 
L 0 0 
z
" style="fill:#ffffff;"/>
  </g>
  <g id="axes_1">
   <g id="patch_2">
    <path d="M 63 453.6 
L 453.6 453.6 
L 453.6 50.4 
L 63 50.4 
z
" style="fill:#ffffff;"/>
   </g>
   <g id="line2d_1">
    <path clip-path="url(#p9087d4bee0)" d="M 64.953 352.8 
L 158.697 352.8 
L 160.65 151.2 
L 353.997 151.2 
L 355.95 352.8 
L 449.694 352.8 
L 449.694 352.8 
" style="fill:none;stroke:#000000;stroke-linecap:square;"/>
   </g>
   <g id="line2d_2">
    <path clip-path="url(#p9087d4bee0)" d="M 64.953 321.852942 
L 66.906 330.628413 
L 68.859 338.821662 
L 70.812 346.447787 
L 72.765 353.521728 
L 74.718 360.058271 
L 76.671 366.072047 
L 78.624 371.577534 
L 80.577 376.589052 
L 82.53 381.120768 
L 84.483 385.186695 
L 86.436 388.800689 
L 88.389 391.976454 
L 90.342 394.727536 
L 92.295 397.067328 
L 94.248 399.009068 
L 96.201 400.56584 
L 98.154 401.75057 
L 100.107 402.576033 
L 102.06 403.054848 
L 104.013 403.199477 
L 105.966 403.022231 
L 107.919 402.535262 
L 109.872 401.75057 
L 111.825 400.68 
L 113.778 399.335241 
L 115.731 397.727828 
L 117.684 395.86914 
L 119.637 393.770404 
L 121.59 391.442688 
L 123.543 388.896909 
L 125.496 386.143827 
L 129.402 380.058023 
L 133.308 373.268264 
L 137.214 365.855061 
L 141.12 357.896448 
L 145.026 349.467981 
L 150.885 336.103488 
L 156.744 322.081863 
L 164.556 302.748907 
L 182.133 258.928969 
L 187.992 244.873901 
L 193.851 231.366346 
L 199.71 218.550528 
L 203.616 210.456491 
L 207.522 202.764596 
L 211.428 195.508287 
L 215.334 188.718528 
L 219.24 182.423808 
L 223.146 176.650139 
L 227.052 171.421054 
L 230.958 166.757611 
L 234.864 162.678388 
L 236.817 160.862988 
L 238.77 159.199488 
L 240.723 157.689514 
L 242.676 156.334536 
L 244.629 155.135871 
L 246.582 154.094679 
L 248.535 153.211968 
L 250.488 152.488588 
L 252.441 151.925237 
L 254.394 151.522457 
L 256.347 151.280634 
L 258.3 151.2 
L 260.253 151.280634 
L 262.206 151.522457 
L 264.159 151.925237 
L 266.112 152.488588 
L 268.065 153.211968 
L 270.018 154.094679 
L 271.971 155.135871 
L 273.924 156.334536 
L 275.877 157.689514 
L 277.83 159.199488 
L 279.783 160.862988 
L 283.689 164.643907 
L 287.595 169.017408 
L 291.501 173.966149 
L 295.407 179.470313 
L 299.313 185.507604 
L 303.219 192.05325 
L 307.125 199.08 
L 311.031 206.558128 
L 314.937 214.455429 
L 318.843 222.737221 
L 324.702 235.798869 
L 330.561 249.505573 
L 338.373 268.526291 
L 352.044 302.748907 
L 359.856 322.081863 
L 365.715 336.103488 
L 371.574 349.467981 
L 375.48 357.896448 
L 379.386 365.855061 
L 383.292 373.268264 
L 387.198 380.058023 
L 391.104 386.143827 
L 393.057 388.896909 
L 395.01 391.442688 
L 396.963 393.770404 
L 398.916 395.86914 
L 400.869 397.727828 
L 402.822 399.335241 
L 404.775 400.68 
L 406.728 401.75057 
L 408.681 402.535262 
L 410.634 403.022231 
L 412.587 403.199477 
L 414.54 403.054848 
L 416.493 402.576033 
L 418.446 401.75057 
L 420.399 400.56584 
L 422.352 399.009068 
L 424.305 397.067328 
L 426.258 394.727536 
L 428.211 391.976454 
L 430.164 388.800689 
L 432.117 385.186695 
L 434.07 381.120768 
L 436.023 376.589052 
L 437.976 371.577534 
L 439.929 366.072047 
L 441.882 360.058271 
L 443.835 353.521728 
L 445.788 346.447787 
L 447.741 338.821662 
L 449.694 330.628413 
L 449.694 330.628413 
" style="fill:none;stroke:#0000ff;stroke-dasharray:6.000000,6.000000;stroke-dashoffset:0.0;"/>
   </g>
   <g id="line2d_3">
    <path clip-path="url(#p9087d4bee0)" d="M 64.953 360.308129 
L 66.906 346.803081 
L 68.859 337.007676 
L 70.812 330.414253 
L 72.765 326.557402 
L 74.718 325.011616 
L 76.671 325.389036 
L 78.624 327.337276 
L 80.577 330.537331 
L 82.53 334.701567 
L 84.483 339.571787 
L 88.389 350.533538 
L 94.248 367.309036 
L 96.201 372.417205 
L 98.154 377.101687 
L 100.107 381.279098 
L 102.06 384.881349 
L 104.013 387.854406 
L 105.966 390.157105 
L 107.919 391.760024 
L 109.872 392.64442 
L 111.825 392.801207 
L 113.778 392.229998 
L 115.731 390.938192 
L 117.684 388.940118 
L 119.637 386.256216 
L 121.59 382.912279 
L 123.543 378.938727 
L 125.496 374.369936 
L 127.449 369.243603 
L 129.402 363.600152 
L 131.355 357.482184 
L 135.261 344.000941 
L 139.167 329.165597 
L 143.073 313.347543 
L 148.932 288.573628 
L 156.744 255.364892 
L 160.65 239.362418 
L 164.556 224.101531 
L 168.462 209.790653 
L 172.368 196.598842 
L 176.274 184.655425 
L 178.227 179.181534 
L 180.18 174.05055 
L 182.133 169.267842 
L 184.086 164.836535 
L 186.039 160.757593 
L 187.992 157.029898 
L 189.945 153.65035 
L 191.898 150.613964 
L 193.851 147.913975 
L 195.804 145.541952 
L 197.757 143.487912 
L 199.71 141.74044 
L 201.663 140.28681 
L 203.616 139.113115 
L 205.569 138.204387 
L 207.522 137.544733 
L 209.475 137.117458 
L 211.428 136.905196 
L 213.381 136.890043 
L 215.334 137.053676 
L 217.287 137.377491 
L 219.24 137.842718 
L 223.146 139.122248 
L 227.052 140.743446 
L 232.911 143.503247 
L 238.77 146.262616 
L 242.676 147.909756 
L 246.582 149.291579 
L 250.488 150.333355 
L 254.394 150.980554 
L 258.3 151.2 
L 262.206 150.980554 
L 266.112 150.333355 
L 270.018 149.291579 
L 273.924 147.909756 
L 277.83 146.262616 
L 285.642 142.562398 
L 291.501 139.89929 
L 295.407 138.430546 
L 297.36 137.842718 
L 299.313 137.377491 
L 301.266 137.053676 
L 303.219 136.890043 
L 305.172 136.905196 
L 307.125 137.117458 
L 309.078 137.544733 
L 311.031 138.204387 
L 312.984 139.113115 
L 314.937 140.28681 
L 316.89 141.74044 
L 318.843 143.487912 
L 320.796 145.541952 
L 322.749 147.913975 
L 324.702 150.613964 
L 326.655 153.65035 
L 328.608 157.029898 
L 330.561 160.757593 
L 332.514 164.836535 
L 334.467 169.267842 
L 336.42 174.05055 
L 338.373 179.181534 
L 340.326 184.655425 
L 344.232 196.598842 
L 348.138 209.790653 
L 352.044 224.101531 
L 355.95 239.362418 
L 361.809 263.568648 
L 375.48 321.356303 
L 379.386 336.729308 
L 383.292 350.933964 
L 385.245 357.482184 
L 387.198 363.600152 
L 389.151 369.243603 
L 391.104 374.369936 
L 393.057 378.938727 
L 395.01 382.912279 
L 396.963 386.256216 
L 398.916 388.940118 
L 400.869 390.938192 
L 402.822 392.229998 
L 404.775 392.801207 
L 406.728 392.64442 
L 408.681 391.760024 
L 410.634 390.157105 
L 412.587 387.854406 
L 414.54 384.881349 
L 416.493 381.279098 
L 418.446 377.101687 
L 420.399 372.417205 
L 422.352 367.309036 
L 426.258 356.23955 
L 430.164 344.91738 
L 432.117 339.571787 
L 434.07 334.701567 
L 436.023 330.537331 
L 437.976 327.337276 
L 439.929 325.389036 
L 441.882 325.011616 
L 443.835 326.557402 
L 445.788 330.414253 
L 447.741 337.007676 
L 449.694 346.803081 
L 449.694 346.803081 
" style="fill:none;stroke:#008000;stroke-dasharray:6.000000,6.000000;stroke-dashoffset:0.0;"/>
   </g>
   <g id="line2d_4">
    <path clip-path="url(#p9087d4bee0)" d="M 64.953 362.706922 
L 66.906 365.89018 
L 68.859 359.852121 
L 70.812 351.235764 
L 72.765 343.801305 
L 74.718 339.314527 
L 76.671 338.226774 
L 78.624 340.18511 
L 80.577 344.405539 
L 82.53 349.93707 
L 84.483 355.83999 
L 86.436 361.297809 
L 88.389 365.679017 
L 90.342 368.561842 
L 92.295 369.732749 
L 94.248 369.167245 
L 96.201 366.999764 
L 98.154 363.487854 
L 100.107 358.974633 
L 105.966 343.400729 
L 107.919 338.825536 
L 109.872 335.108041 
L 111.825 332.485344 
L 113.778 331.119815 
L 115.731 331.096244 
L 117.684 332.423071 
L 119.637 335.037032 
L 121.59 338.810529 
L 123.543 343.561061 
L 125.496 349.062041 
L 133.308 373.150111 
L 135.261 378.276837 
L 137.214 382.51305 
L 139.167 385.634336 
L 141.12 387.451007 
L 143.073 387.812607 
L 145.026 386.610891 
L 146.979 383.781294 
L 148.932 379.30301 
L 150.885 373.197759 
L 152.838 365.527426 
L 154.791 356.390695 
L 156.744 345.918884 
L 158.697 334.27113 
L 160.65 321.629133 
L 164.556 294.168613 
L 174.321 222.732296 
L 176.274 209.570434 
L 178.227 197.178062 
L 180.18 185.683293 
L 182.133 175.190037 
L 184.086 165.77704 
L 186.039 157.49757 
L 187.992 150.379717 
L 189.945 144.427272 
L 191.898 139.621123 
L 193.851 135.921103 
L 195.804 133.268218 
L 197.757 131.587184 
L 199.71 130.789197 
L 201.663 130.774844 
L 203.616 131.437097 
L 205.569 132.664302 
L 207.522 134.343096 
L 209.475 136.361189 
L 213.381 140.986737 
L 217.287 145.755855 
L 219.24 147.989732 
L 221.193 150.037137 
L 223.146 151.849428 
L 225.099 153.391063 
L 227.052 154.639527 
L 229.005 155.584911 
L 230.958 156.229178 
L 232.911 156.585155 
L 234.864 156.675267 
L 236.817 156.530083 
L 238.77 156.186693 
L 242.676 155.075849 
L 250.488 152.42089 
L 252.441 151.908749 
L 254.394 151.522078 
L 256.347 151.281591 
L 258.3 151.2 
L 260.253 151.281591 
L 262.206 151.522078 
L 264.159 151.908749 
L 268.065 153.030485 
L 275.877 155.686983 
L 277.83 156.186693 
L 279.783 156.530083 
L 281.736 156.675267 
L 283.689 156.585155 
L 285.642 156.229178 
L 287.595 155.584911 
L 289.548 154.639527 
L 291.501 153.391063 
L 293.454 151.849428 
L 295.407 150.037137 
L 297.36 147.989732 
L 301.266 143.396975 
L 305.172 138.609947 
L 307.125 136.361189 
L 309.078 134.343096 
L 311.031 132.664302 
L 312.984 131.437097 
L 314.937 130.774844 
L 316.89 130.789197 
L 318.843 131.587184 
L 320.796 133.268218 
L 322.749 135.921103 
L 324.702 139.621123 
L 326.655 144.427272 
L 328.608 150.379717 
L 330.561 157.49757 
L 332.514 165.77704 
L 334.467 175.190037 
L 336.42 185.683293 
L 338.373 197.178062 
L 340.326 209.570434 
L 344.232 236.512977 
L 355.95 321.629133 
L 357.903 334.27113 
L 359.856 345.918884 
L 361.809 356.390695 
L 363.762 365.527426 
L 365.715 373.197759 
L 367.668 379.30301 
L 369.621 383.781294 
L 371.574 386.610891 
L 373.527 387.812607 
L 375.48 387.451007 
L 377.433 385.634336 
L 379.386 382.51305 
L 381.339 378.276837 
L 383.292 373.150111 
L 385.245 367.385953 
L 391.104 349.062041 
L 393.057 343.561061 
L 395.01 338.810529 
L 396.963 335.037032 
L 398.916 332.423071 
L 400.869 331.096244 
L 402.822 331.119815 
L 404.775 332.485344 
L 406.728 335.108041 
L 408.681 338.825536 
L 410.634 343.400729 
L 416.493 358.974633 
L 418.446 363.487854 
L 420.399 366.999764 
L 422.352 369.167245 
L 424.305 369.732749 
L 426.258 368.561842 
L 428.211 365.679017 
L 430.164 361.297809 
L 432.117 355.83999 
L 434.07 349.93707 
L 436.023 344.405539 
L 437.976 340.18511 
L 439.929 338.226774 
L 441.882 339.314527 
L 443.835 343.801305 
L 445.788 351.235764 
L 447.741 359.852121 
L 449.694 365.89018 
L 449.694 365.89018 
" style="fill:none;stroke:#ff0000;stroke-dasharray:6.000000,6.000000;stroke-dashoffset:0.0;"/>
   </g>
   <g id="line2d_5">
    <path clip-path="url(#p9087d4bee0)" d="M 64.953 352.502353 
L 66.906 359.694427 
L 68.859 350.96901 
L 70.812 345.270451 
L 72.765 349.009526 
L 74.718 356.509687 
L 76.671 360.690908 
L 78.624 358.896364 
L 82.53 347.048698 
L 84.483 344.183783 
L 86.436 345.634541 
L 88.389 350.441696 
L 90.342 356.343808 
L 92.295 360.908646 
L 94.248 362.460369 
L 96.201 360.546497 
L 98.154 355.914354 
L 100.107 350.121721 
L 102.06 344.975607 
L 104.013 341.989387 
L 105.966 341.997682 
L 107.919 344.997649 
L 109.872 350.216876 
L 111.825 356.356339 
L 113.778 361.928177 
L 115.731 365.602351 
L 117.684 366.488874 
L 119.637 364.306683 
L 121.59 359.419132 
L 123.543 352.743437 
L 125.496 345.562801 
L 127.449 339.282985 
L 129.402 335.179178 
L 131.355 334.17522 
L 133.308 336.687413 
L 135.261 342.551886 
L 137.214 351.040202 
L 141.12 370.785729 
L 143.073 378.903272 
L 145.026 383.759503 
L 146.979 384.072271 
L 148.932 378.970501 
L 150.885 368.085988 
L 152.838 351.58473 
L 154.791 330.138509 
L 156.744 304.844222 
L 164.556 194.741646 
L 166.509 172.262701 
L 168.462 153.966019 
L 170.415 140.32791 
L 172.368 131.435541 
L 174.321 127.016111 
L 176.274 126.496288 
L 178.227 129.08324 
L 180.18 133.85733 
L 186.039 152.125207 
L 187.992 157.009938 
L 189.945 160.480637 
L 191.898 162.363749 
L 193.851 162.683652 
L 195.804 161.630628 
L 197.757 159.516915 
L 199.71 156.726525 
L 203.616 150.710887 
L 205.569 148.182944 
L 207.522 146.309283 
L 209.475 145.216323 
L 211.428 144.927471 
L 213.381 145.373484 
L 215.334 146.411619 
L 217.287 147.85054 
L 221.193 151.085617 
L 223.146 152.49529 
L 225.099 153.572836 
L 227.052 154.239813 
L 229.005 154.475764 
L 230.958 154.313785 
L 232.911 153.830261 
L 236.817 152.332443 
L 240.723 150.880248 
L 242.676 150.390244 
L 244.629 150.113612 
L 246.582 150.048382 
L 248.535 150.161164 
L 256.347 151.133076 
L 258.3 151.2 
L 260.253 151.133076 
L 264.159 150.680382 
L 268.065 150.161164 
L 270.018 150.048382 
L 271.971 150.113612 
L 273.924 150.390244 
L 275.877 150.880248 
L 279.783 152.332443 
L 283.689 153.830261 
L 285.642 154.313785 
L 287.595 154.475764 
L 289.548 154.239813 
L 291.501 153.572836 
L 293.454 152.49529 
L 295.407 151.085617 
L 299.313 147.85054 
L 301.266 146.411619 
L 303.219 145.373484 
L 305.172 144.927471 
L 307.125 145.216323 
L 309.078 146.309283 
L 311.031 148.182944 
L 312.984 150.710887 
L 318.843 159.516915 
L 320.796 161.630628 
L 322.749 162.683652 
L 324.702 162.363749 
L 326.655 160.480637 
L 328.608 157.009938 
L 330.561 152.125207 
L 332.514 146.212905 
L 336.42 133.85733 
L 338.373 129.08324 
L 340.326 126.496288 
L 342.279 127.016111 
L 344.232 131.435541 
L 346.185 140.32791 
L 348.138 153.966019 
L 350.091 172.262701 
L 352.044 194.741646 
L 353.997 220.544832 
L 359.856 304.844222 
L 361.809 330.138509 
L 363.762 351.58473 
L 365.715 368.085988 
L 367.668 378.970501 
L 369.621 384.072271 
L 371.574 383.759503 
L 373.527 378.903272 
L 375.48 370.785729 
L 379.386 351.040202 
L 381.339 342.551886 
L 383.292 336.687413 
L 385.245 334.17522 
L 387.198 335.179178 
L 389.151 339.282985 
L 391.104 345.562801 
L 393.057 352.743437 
L 395.01 359.419132 
L 396.963 364.306683 
L 398.916 366.488874 
L 400.869 365.602351 
L 402.822 361.928177 
L 404.775 356.356339 
L 406.728 350.216876 
L 408.681 344.997649 
L 410.634 341.997682 
L 412.587 341.989387 
L 414.54 344.975607 
L 416.493 350.121721 
L 418.446 355.914354 
L 420.399 360.546497 
L 422.352 362.460369 
L 424.305 360.908646 
L 426.258 356.343808 
L 428.211 350.441696 
L 430.164 345.634541 
L 432.117 344.183783 
L 434.07 347.048698 
L 437.976 358.896364 
L 439.929 360.690908 
L 441.882 356.509687 
L 443.835 349.009526 
L 445.788 345.270451 
L 447.741 350.96901 
L 449.694 359.694427 
L 449.694 359.694427 
" style="fill:none;stroke:#00bfbf;stroke-dasharray:6.000000,6.000000;stroke-dashoffset:0.0;"/>
   </g>
   <g id="patch_3">
    <path d="M 63 50.4 
L 453.6 50.4 
" style="fill:none;stroke:#000000;stroke-linecap:square;stroke-linejoin:miter;"/>
   </g>
   <g id="patch_4">
    <path d="M 453.6 453.6 
L 453.6 50.4 
" style="fill:none;stroke:#000000;stroke-linecap:square;stroke-linejoin:miter;"/>
   </g>
   <g id="patch_5">
    <path d="M 63 453.6 
L 453.6 453.6 
" style="fill:none;stroke:#000000;stroke-linecap:square;stroke-linejoin:miter;"/>
   </g>
   <g id="patch_6">
    <path d="M 63 453.6 
L 63 50.4 
" style="fill:none;stroke:#000000;stroke-linecap:square;stroke-linejoin:miter;"/>
   </g>
   <g id="matplotlib.axis_1">
    <g id="xtick_1">
     <g id="line2d_6">
      <path clip-path="url(#p9087d4bee0)" d="M 63 453.6 
L 63 50.4 
" style="fill:none;stroke:#000000;stroke-dasharray:1.000000,3.000000;stroke-dashoffset:0.0;stroke-width:0.5;"/>
     </g>
     <g id="line2d_7">
      <defs>
       <path d="M 0 0 
L 0 -4 
" id="mb2fb17d37b" style="stroke:#000000;stroke-width:0.5;"/>
      </defs>
      <g>
       <use style="stroke:#000000;stroke-width:0.5;" x="63.0" xlink:href="#mb2fb17d37b" y="453.6"/>
      </g>
     </g>
     <g id="line2d_8">
      <defs>
       <path d="M 0 0 
L 0 4 
" id="m83bf07d229" style="stroke:#000000;stroke-width:0.5;"/>
      </defs>
      <g>
       <use style="stroke:#000000;stroke-width:0.5;" x="63.0" xlink:href="#m83bf07d229" y="50.4"/>
      </g>
     </g>
     <g id="text_1">
      <!-- −1.0 -->
      <defs>
       <path d="M 10.59375 35.296875 
L 73.1875 35.296875 
L 73.1875 27.390625 
L 10.59375 27.390625 
z
" id="BitstreamVeraSerif-Roman-2212"/>
       <path d="M 14.203125 0 
L 14.203125 5.171875 
L 26.90625 5.171875 
L 26.90625 65.828125 
L 12.203125 56.296875 
L 12.203125 62.703125 
L 29.984375 74.21875 
L 36.71875 74.21875 
L 36.71875 5.171875 
L 49.421875 5.171875 
L 49.421875 0 
z
" id="BitstreamVeraSerif-Roman-31"/>
       <path d="M 31.78125 3.421875 
Q 39.265625 3.421875 42.96875 11.625 
Q 46.6875 19.828125 46.6875 36.375 
Q 46.6875 52.984375 42.96875 61.1875 
Q 39.265625 69.390625 31.78125 69.390625 
Q 24.3125 69.390625 20.59375 61.1875 
Q 16.890625 52.984375 16.890625 36.375 
Q 16.890625 19.828125 20.59375 11.625 
Q 24.3125 3.421875 31.78125 3.421875 
M 31.78125 -1.421875 
Q 19.921875 -1.421875 13.25 8.53125 
Q 6.59375 18.5 6.59375 36.375 
Q 6.59375 54.296875 13.25 64.25 
Q 19.921875 74.21875 31.78125 74.21875 
Q 43.703125 74.21875 50.34375 64.25 
Q 56.984375 54.296875 56.984375 36.375 
Q 56.984375 18.5 50.34375 8.53125 
Q 43.703125 -1.421875 31.78125 -1.421875 
" id="BitstreamVeraSerif-Roman-30"/>
       <path d="M 9.421875 5.078125 
Q 9.421875 7.8125 11.28125 9.71875 
Q 13.140625 11.625 15.921875 11.625 
Q 18.609375 11.625 20.5 9.71875 
Q 22.40625 7.8125 22.40625 5.078125 
Q 22.40625 2.390625 20.5 0.484375 
Q 18.609375 -1.421875 15.921875 -1.421875 
Q 13.140625 -1.421875 11.28125 0.453125 
Q 9.421875 2.34375 9.421875 5.078125 
" id="BitstreamVeraSerif-Roman-2e"/>
      </defs>
      <g transform="translate(48.4303125 466.718125)scale(0.12 -0.12)">
       <use xlink:href="#BitstreamVeraSerif-Roman-2212"/>
       <use x="83.7890625" xlink:href="#BitstreamVeraSerif-Roman-31"/>
       <use x="147.412109375" xlink:href="#BitstreamVeraSerif-Roman-2e"/>
       <use x="179.19921875" xlink:href="#BitstreamVeraSerif-Roman-30"/>
      </g>
     </g>
    </g>
    <g id="xtick_2">
     <g id="line2d_9">
      <path clip-path="url(#p9087d4bee0)" d="M 160.65 453.6 
L 160.65 50.4 
" style="fill:none;stroke:#000000;stroke-dasharray:1.000000,3.000000;stroke-dashoffset:0.0;stroke-width:0.5;"/>
     </g>
     <g id="line2d_10">
      <g>
       <use style="stroke:#000000;stroke-width:0.5;" x="160.65" xlink:href="#mb2fb17d37b" y="453.6"/>
      </g>
     </g>
     <g id="line2d_11">
      <g>
       <use style="stroke:#000000;stroke-width:0.5;" x="160.65" xlink:href="#m83bf07d229" y="50.4"/>
      </g>
     </g>
     <g id="text_2">
      <!-- −0.5 -->
      <defs>
       <path d="M 50.296875 72.90625 
L 50.296875 64.890625 
L 16.890625 64.890625 
L 16.890625 44 
Q 19.4375 45.75 22.828125 46.625 
Q 26.21875 47.515625 30.421875 47.515625 
Q 42.234375 47.515625 49.0625 40.96875 
Q 55.90625 34.421875 55.90625 23.09375 
Q 55.90625 11.53125 49 5.046875 
Q 42.09375 -1.421875 29.59375 -1.421875 
Q 24.5625 -1.421875 19.28125 -0.1875 
Q 14.015625 1.03125 8.5 3.515625 
L 8.5 17.671875 
L 14.015625 17.671875 
Q 14.453125 10.75 18.421875 7.078125 
Q 22.40625 3.421875 29.59375 3.421875 
Q 37.3125 3.421875 41.453125 8.5 
Q 45.609375 13.578125 45.609375 23.09375 
Q 45.609375 32.5625 41.484375 37.609375 
Q 37.359375 42.671875 29.59375 42.671875 
Q 25.203125 42.671875 21.84375 41.109375 
Q 18.5 39.546875 15.921875 36.28125 
L 11.71875 36.28125 
L 11.71875 72.90625 
z
" id="BitstreamVeraSerif-Roman-35"/>
      </defs>
      <g transform="translate(146.0803125 466.718125)scale(0.12 -0.12)">
       <use xlink:href="#BitstreamVeraSerif-Roman-2212"/>
       <use x="83.7890625" xlink:href="#BitstreamVeraSerif-Roman-30"/>
       <use x="147.412109375" xlink:href="#BitstreamVeraSerif-Roman-2e"/>
       <use x="179.19921875" xlink:href="#BitstreamVeraSerif-Roman-35"/>
      </g>
     </g>
    </g>
    <g id="xtick_3">
     <g id="line2d_12">
      <path clip-path="url(#p9087d4bee0)" d="M 258.3 453.6 
L 258.3 50.4 
" style="fill:none;stroke:#000000;stroke-dasharray:1.000000,3.000000;stroke-dashoffset:0.0;stroke-width:0.5;"/>
     </g>
     <g id="line2d_13">
      <g>
       <use style="stroke:#000000;stroke-width:0.5;" x="258.3" xlink:href="#mb2fb17d37b" y="453.6"/>
      </g>
     </g>
     <g id="line2d_14">
      <g>
       <use style="stroke:#000000;stroke-width:0.5;" x="258.3" xlink:href="#m83bf07d229" y="50.4"/>
      </g>
     </g>
     <g id="text_3">
      <!-- 0.0 -->
      <g transform="translate(248.758125 466.718125)scale(0.12 -0.12)">
       <use xlink:href="#BitstreamVeraSerif-Roman-30"/>
       <use x="63.623046875" xlink:href="#BitstreamVeraSerif-Roman-2e"/>
       <use x="95.41015625" xlink:href="#BitstreamVeraSerif-Roman-30"/>
      </g>
     </g>
    </g>
    <g id="xtick_4">
     <g id="line2d_15">
      <path clip-path="url(#p9087d4bee0)" d="M 355.95 453.6 
L 355.95 50.4 
" style="fill:none;stroke:#000000;stroke-dasharray:1.000000,3.000000;stroke-dashoffset:0.0;stroke-width:0.5;"/>
     </g>
     <g id="line2d_16">
      <g>
       <use style="stroke:#000000;stroke-width:0.5;" x="355.95" xlink:href="#mb2fb17d37b" y="453.6"/>
      </g>
     </g>
     <g id="line2d_17">
      <g>
       <use style="stroke:#000000;stroke-width:0.5;" x="355.95" xlink:href="#m83bf07d229" y="50.4"/>
      </g>
     </g>
     <g id="text_4">
      <!-- 0.5 -->
      <g transform="translate(346.408125 466.718125)scale(0.12 -0.12)">
       <use xlink:href="#BitstreamVeraSerif-Roman-30"/>
       <use x="63.623046875" xlink:href="#BitstreamVeraSerif-Roman-2e"/>
       <use x="95.41015625" xlink:href="#BitstreamVeraSerif-Roman-35"/>
      </g>
     </g>
    </g>
    <g id="xtick_5">
     <g id="line2d_18">
      <path clip-path="url(#p9087d4bee0)" d="M 453.6 453.6 
L 453.6 50.4 
" style="fill:none;stroke:#000000;stroke-dasharray:1.000000,3.000000;stroke-dashoffset:0.0;stroke-width:0.5;"/>
     </g>
     <g id="line2d_19">
      <g>
       <use style="stroke:#000000;stroke-width:0.5;" x="453.6" xlink:href="#mb2fb17d37b" y="453.6"/>
      </g>
     </g>
     <g id="line2d_20">
      <g>
       <use style="stroke:#000000;stroke-width:0.5;" x="453.6" xlink:href="#m83bf07d229" y="50.4"/>
      </g>
     </g>
     <g id="text_5">
      <!-- 1.0 -->
      <g transform="translate(444.058125 466.718125)scale(0.12 -0.12)">
       <use xlink:href="#BitstreamVeraSerif-Roman-31"/>
       <use x="63.623046875" xlink:href="#BitstreamVeraSerif-Roman-2e"/>
       <use x="95.41015625" xlink:href="#BitstreamVeraSerif-Roman-30"/>
      </g>
     </g>
    </g>
   </g>
   <g id="matplotlib.axis_2">
    <g id="ytick_1">
     <g id="line2d_21">
      <path clip-path="url(#p9087d4bee0)" d="M 63 453.6 
L 453.6 453.6 
" style="fill:none;stroke:#000000;stroke-dasharray:1.000000,3.000000;stroke-dashoffset:0.0;stroke-width:0.5;"/>
     </g>
     <g id="line2d_22">
      <defs>
       <path d="M 0 0 
L 4 0 
" id="m7e4edb3d96" style="stroke:#000000;stroke-width:0.5;"/>
      </defs>
      <g>
       <use style="stroke:#000000;stroke-width:0.5;" x="63.0" xlink:href="#m7e4edb3d96" y="453.6"/>
      </g>
     </g>
     <g id="line2d_23">
      <defs>
       <path d="M 0 0 
L -4 0 
" id="m0307d66402" style="stroke:#000000;stroke-width:0.5;"/>
      </defs>
      <g>
       <use style="stroke:#000000;stroke-width:0.5;" x="453.6" xlink:href="#m0307d66402" y="453.6"/>
      </g>
     </g>
     <g id="text_6">
      <!-- −0.5 -->
      <g transform="translate(29.860625 456.91125)scale(0.12 -0.12)">
       <use xlink:href="#BitstreamVeraSerif-Roman-2212"/>
       <use x="83.7890625" xlink:href="#BitstreamVeraSerif-Roman-30"/>
       <use x="147.412109375" xlink:href="#BitstreamVeraSerif-Roman-2e"/>
       <use x="179.19921875" xlink:href="#BitstreamVeraSerif-Roman-35"/>
      </g>
     </g>
    </g>
    <g id="ytick_2">
     <g id="line2d_24">
      <path clip-path="url(#p9087d4bee0)" d="M 63 352.8 
L 453.6 352.8 
" style="fill:none;stroke:#000000;stroke-dasharray:1.000000,3.000000;stroke-dashoffset:0.0;stroke-width:0.5;"/>
     </g>
     <g id="line2d_25">
      <g>
       <use style="stroke:#000000;stroke-width:0.5;" x="63.0" xlink:href="#m7e4edb3d96" y="352.8"/>
      </g>
     </g>
     <g id="line2d_26">
      <g>
       <use style="stroke:#000000;stroke-width:0.5;" x="453.6" xlink:href="#m0307d66402" y="352.8"/>
      </g>
     </g>
     <g id="text_7">
      <!-- 0.0 -->
      <g transform="translate(39.91625 356.11125)scale(0.12 -0.12)">
       <use xlink:href="#BitstreamVeraSerif-Roman-30"/>
       <use x="63.623046875" xlink:href="#BitstreamVeraSerif-Roman-2e"/>
       <use x="95.41015625" xlink:href="#BitstreamVeraSerif-Roman-30"/>
      </g>
     </g>
    </g>
    <g id="ytick_3">
     <g id="line2d_27">
      <path clip-path="url(#p9087d4bee0)" d="M 63 252 
L 453.6 252 
" style="fill:none;stroke:#000000;stroke-dasharray:1.000000,3.000000;stroke-dashoffset:0.0;stroke-width:0.5;"/>
     </g>
     <g id="line2d_28">
      <g>
       <use style="stroke:#000000;stroke-width:0.5;" x="63.0" xlink:href="#m7e4edb3d96" y="252.0"/>
      </g>
     </g>
     <g id="line2d_29">
      <g>
       <use style="stroke:#000000;stroke-width:0.5;" x="453.6" xlink:href="#m0307d66402" y="252.0"/>
      </g>
     </g>
     <g id="text_8">
      <!-- 0.5 -->
      <g transform="translate(39.91625 255.31125)scale(0.12 -0.12)">
       <use xlink:href="#BitstreamVeraSerif-Roman-30"/>
       <use x="63.623046875" xlink:href="#BitstreamVeraSerif-Roman-2e"/>
       <use x="95.41015625" xlink:href="#BitstreamVeraSerif-Roman-35"/>
      </g>
     </g>
    </g>
    <g id="ytick_4">
     <g id="line2d_30">
      <path clip-path="url(#p9087d4bee0)" d="M 63 151.2 
L 453.6 151.2 
" style="fill:none;stroke:#000000;stroke-dasharray:1.000000,3.000000;stroke-dashoffset:0.0;stroke-width:0.5;"/>
     </g>
     <g id="line2d_31">
      <g>
       <use style="stroke:#000000;stroke-width:0.5;" x="63.0" xlink:href="#m7e4edb3d96" y="151.2"/>
      </g>
     </g>
     <g id="line2d_32">
      <g>
       <use style="stroke:#000000;stroke-width:0.5;" x="453.6" xlink:href="#m0307d66402" y="151.2"/>
      </g>
     </g>
     <g id="text_9">
      <!-- 1.0 -->
      <g transform="translate(39.91625 154.51125)scale(0.12 -0.12)">
       <use xlink:href="#BitstreamVeraSerif-Roman-31"/>
       <use x="63.623046875" xlink:href="#BitstreamVeraSerif-Roman-2e"/>
       <use x="95.41015625" xlink:href="#BitstreamVeraSerif-Roman-30"/>
      </g>
     </g>
    </g>
    <g id="ytick_5">
     <g id="line2d_33">
      <path clip-path="url(#p9087d4bee0)" d="M 63 50.4 
L 453.6 50.4 
" style="fill:none;stroke:#000000;stroke-dasharray:1.000000,3.000000;stroke-dashoffset:0.0;stroke-width:0.5;"/>
     </g>
     <g id="line2d_34">
      <g>
       <use style="stroke:#000000;stroke-width:0.5;" x="63.0" xlink:href="#m7e4edb3d96" y="50.4"/>
      </g>
     </g>
     <g id="line2d_35">
      <g>
       <use style="stroke:#000000;stroke-width:0.5;" x="453.6" xlink:href="#m0307d66402" y="50.4"/>
      </g>
     </g>
     <g id="text_10">
      <!-- 1.5 -->
      <g transform="translate(39.91625 53.71125)scale(0.12 -0.12)">
       <use xlink:href="#BitstreamVeraSerif-Roman-31"/>
       <use x="63.623046875" xlink:href="#BitstreamVeraSerif-Roman-2e"/>
       <use x="95.41015625" xlink:href="#BitstreamVeraSerif-Roman-35"/>
      </g>
     </g>
    </g>
   </g>
   <g id="text_11">
    <!-- Top_hat function and its spectral reconstruction -->
    <defs>
     <path d="M 52.484375 5.171875 
L 61.078125 5.171875 
L 61.078125 0 
L 43.5 0 
L 43.5 8.109375 
Q 40.875 3.21875 36.796875 0.890625 
Q 32.71875 -1.421875 26.703125 -1.421875 
Q 17.140625 -1.421875 11.0625 6.171875 
Q 4.984375 13.765625 4.984375 25.984375 
Q 4.984375 38.1875 11.03125 45.75 
Q 17.09375 53.328125 26.703125 53.328125 
Q 32.71875 53.328125 36.796875 51 
Q 40.875 48.6875 43.5 43.796875 
L 43.5 70.796875 
L 35.015625 70.796875 
L 35.015625 75.984375 
L 52.484375 75.984375 
z
M 43.5 23.390625 
L 43.5 28.515625 
Q 43.5 37.84375 39.90625 42.765625 
Q 36.328125 47.703125 29.5 47.703125 
Q 22.5625 47.703125 19.015625 42.234375 
Q 15.484375 36.765625 15.484375 25.984375 
Q 15.484375 15.234375 19.015625 9.71875 
Q 22.5625 4.203125 29.5 4.203125 
Q 36.328125 4.203125 39.90625 9.109375 
Q 43.5 14.015625 43.5 23.390625 
" id="BitstreamVeraSerif-Roman-64"/>
     <path d="M 54.203125 25 
L 15.484375 25 
L 15.484375 24.609375 
Q 15.484375 14.109375 19.4375 8.765625 
Q 23.390625 3.421875 31.109375 3.421875 
Q 37.015625 3.421875 40.796875 6.515625 
Q 44.578125 9.625 46.09375 15.71875 
L 53.328125 15.71875 
Q 51.171875 7.171875 45.375 2.875 
Q 39.59375 -1.421875 30.171875 -1.421875 
Q 18.796875 -1.421875 11.890625 6.078125 
Q 4.984375 13.578125 4.984375 25.984375 
Q 4.984375 38.28125 11.765625 45.796875 
Q 18.5625 53.328125 29.59375 53.328125 
Q 41.359375 53.328125 47.65625 46.0625 
Q 53.953125 38.8125 54.203125 25 
M 43.609375 30.171875 
Q 43.3125 39.265625 39.765625 43.875 
Q 36.234375 48.484375 29.59375 48.484375 
Q 23.390625 48.484375 19.828125 43.84375 
Q 16.265625 39.203125 15.484375 30.171875 
z
" id="BitstreamVeraSerif-Roman-65"/>
     <path d="M 43.015625 63.71875 
L 38.28125 63.71875 
Q 38.234375 67.390625 36.203125 69.28125 
Q 34.1875 71.1875 30.328125 71.1875 
Q 25.296875 71.1875 23.234375 68.421875 
Q 21.1875 65.671875 21.1875 58.59375 
L 21.1875 51.90625 
L 35.6875 51.90625 
L 35.6875 46.6875 
L 21.1875 46.6875 
L 21.1875 5.171875 
L 32.71875 5.171875 
L 32.71875 0 
L 3.609375 0 
L 3.609375 5.171875 
L 12.203125 5.171875 
L 12.203125 46.6875 
L 3.609375 46.6875 
L 3.609375 51.90625 
L 12.203125 51.90625 
L 12.203125 58.40625 
Q 12.203125 67.09375 16.71875 71.53125 
Q 21.234375 75.984375 29.984375 75.984375 
Q 33.25 75.984375 36.515625 75.390625 
Q 39.796875 74.8125 43.015625 73.578125 
z
" id="BitstreamVeraSerif-Roman-66"/>
     <path d="M 10.796875 46.6875 
L 2.875 46.6875 
L 2.875 51.90625 
L 10.796875 51.90625 
L 10.796875 68.015625 
L 19.828125 68.015625 
L 19.828125 51.90625 
L 36.71875 51.90625 
L 36.71875 46.6875 
L 19.828125 46.6875 
L 19.828125 13.71875 
Q 19.828125 7.125 21.09375 5.265625 
Q 22.359375 3.421875 25.78125 3.421875 
Q 29.296875 3.421875 30.90625 5.484375 
Q 32.515625 7.5625 32.625 12.203125 
L 39.40625 12.203125 
Q 39.015625 5.125 35.546875 1.84375 
Q 32.078125 -1.421875 25 -1.421875 
Q 17.234375 -1.421875 14.015625 2.015625 
Q 10.796875 5.46875 10.796875 13.71875 
z
" id="BitstreamVeraSerif-Roman-74"/>
     <path d="M 5.609375 2.875 
L 5.609375 14.984375 
L 10.796875 14.984375 
Q 10.984375 9.1875 14.421875 6.296875 
Q 17.875 3.421875 24.609375 3.421875 
Q 30.671875 3.421875 33.84375 5.6875 
Q 37.015625 7.953125 37.015625 12.3125 
Q 37.015625 15.71875 34.6875 17.8125 
Q 32.375 19.921875 24.90625 22.3125 
L 18.40625 24.515625 
Q 11.71875 26.65625 8.71875 29.875 
Q 5.71875 33.109375 5.71875 38.09375 
Q 5.71875 45.21875 10.9375 49.265625 
Q 16.15625 53.328125 25.390625 53.328125 
Q 29.5 53.328125 34.03125 52.25 
Q 38.578125 51.171875 43.40625 49.125 
L 43.40625 37.796875 
L 38.234375 37.796875 
Q 38.03125 42.828125 34.703125 45.65625 
Q 31.390625 48.484375 25.6875 48.484375 
Q 20.015625 48.484375 17.109375 46.484375 
Q 14.203125 44.484375 14.203125 40.484375 
Q 14.203125 37.203125 16.40625 35.21875 
Q 18.609375 33.25 25.203125 31.203125 
L 32.328125 29 
Q 39.703125 26.703125 42.9375 23.265625 
Q 46.1875 19.828125 46.1875 14.40625 
Q 46.1875 7.03125 40.546875 2.796875 
Q 34.90625 -1.421875 25 -1.421875 
Q 19.96875 -1.421875 15.1875 -0.34375 
Q 10.40625 0.734375 5.609375 2.875 
" id="BitstreamVeraSerif-Roman-73"/>
     <path d="M 39.796875 16.3125 
L 39.796875 27.296875 
L 28.21875 27.296875 
Q 21.53125 27.296875 18.25 24.40625 
Q 14.984375 21.53125 14.984375 15.578125 
Q 14.984375 10.15625 18.296875 6.984375 
Q 21.625 3.8125 27.296875 3.8125 
Q 32.90625 3.8125 36.34375 7.28125 
Q 39.796875 10.75 39.796875 16.3125 
M 48.78125 32.421875 
L 48.78125 5.171875 
L 56.78125 5.171875 
L 56.78125 0 
L 39.796875 0 
L 39.796875 5.609375 
Q 36.8125 2 32.90625 0.28125 
Q 29 -1.421875 23.78125 -1.421875 
Q 15.140625 -1.421875 10.0625 3.171875 
Q 4.984375 7.765625 4.984375 15.578125 
Q 4.984375 23.640625 10.796875 28.078125 
Q 16.609375 32.515625 27.203125 32.515625 
L 39.796875 32.515625 
L 39.796875 36.078125 
Q 39.796875 42 36.203125 45.234375 
Q 32.625 48.484375 26.125 48.484375 
Q 20.75 48.484375 17.578125 46.046875 
Q 14.40625 43.609375 13.625 38.8125 
L 8.984375 38.8125 
L 8.984375 49.3125 
Q 13.671875 51.3125 18.09375 52.3125 
Q 22.515625 53.328125 26.703125 53.328125 
Q 37.5 53.328125 43.140625 47.96875 
Q 48.78125 42.625 48.78125 32.421875 
" id="BitstreamVeraSerif-Roman-61"/>
     <path d="M 20.515625 28.515625 
L 20.515625 23.390625 
Q 20.515625 14.015625 24.09375 9.109375 
Q 27.6875 4.203125 34.515625 4.203125 
Q 41.40625 4.203125 44.9375 9.71875 
Q 48.484375 15.234375 48.484375 25.984375 
Q 48.484375 36.765625 44.9375 42.234375 
Q 41.40625 47.703125 34.515625 47.703125 
Q 27.6875 47.703125 24.09375 42.765625 
Q 20.515625 37.84375 20.515625 28.515625 
M 11.53125 46.6875 
L 2.875 46.6875 
L 2.875 51.90625 
L 20.515625 51.90625 
L 20.515625 43.796875 
Q 23.140625 48.6875 27.21875 51 
Q 31.296875 53.328125 37.3125 53.328125 
Q 46.875 53.328125 52.921875 45.75 
Q 58.984375 38.1875 58.984375 25.984375 
Q 58.984375 13.765625 52.921875 6.171875 
Q 46.875 -1.421875 37.3125 -1.421875 
Q 31.296875 -1.421875 27.21875 0.890625 
Q 23.140625 3.21875 20.515625 8.109375 
L 20.515625 -15.578125 
L 29 -15.578125 
L 29 -20.796875 
L 2.875 -20.796875 
L 2.875 -15.578125 
L 11.53125 -15.578125 
z
" id="BitstreamVeraSerif-Roman-70"/>
     <path id="BitstreamVeraSerif-Roman-20"/>
     <path d="M 9.71875 68.015625 
Q 9.71875 70.265625 11.34375 71.921875 
Q 12.984375 73.578125 15.28125 73.578125 
Q 17.53125 73.578125 19.15625 71.921875 
Q 20.796875 70.265625 20.796875 68.015625 
Q 20.796875 65.71875 19.1875 64.109375 
Q 17.578125 62.5 15.28125 62.5 
Q 12.984375 62.5 11.34375 64.109375 
Q 9.71875 65.71875 9.71875 68.015625 
M 21.1875 5.171875 
L 29.6875 5.171875 
L 29.6875 0 
L 3.609375 0 
L 3.609375 5.171875 
L 12.203125 5.171875 
L 12.203125 46.6875 
L 3.609375 46.6875 
L 3.609375 51.90625 
L 21.1875 51.90625 
z
" id="BitstreamVeraSerif-Roman-69"/>
     <path d="M 51.421875 15.578125 
Q 49.515625 7.28125 44.09375 2.921875 
Q 38.671875 -1.421875 30.078125 -1.421875 
Q 18.75 -1.421875 11.859375 6.078125 
Q 4.984375 13.578125 4.984375 25.984375 
Q 4.984375 38.421875 11.859375 45.875 
Q 18.75 53.328125 30.078125 53.328125 
Q 35.015625 53.328125 39.890625 52.171875 
Q 44.78125 51.03125 49.703125 48.6875 
L 49.703125 35.40625 
L 44.484375 35.40625 
Q 43.453125 42.234375 40.015625 45.359375 
Q 36.578125 48.484375 30.171875 48.484375 
Q 22.90625 48.484375 19.1875 42.84375 
Q 15.484375 37.203125 15.484375 25.984375 
Q 15.484375 14.75 19.171875 9.078125 
Q 22.859375 3.421875 30.171875 3.421875 
Q 35.984375 3.421875 39.453125 6.4375 
Q 42.921875 9.46875 44.1875 15.578125 
z
" id="BitstreamVeraSerif-Roman-63"/>
     <path d="M 4.109375 0 
L 4.109375 5.171875 
L 12.203125 5.171875 
L 12.203125 70.796875 
L 3.609375 70.796875 
L 3.609375 75.984375 
L 21.1875 75.984375 
L 21.1875 42.671875 
Q 23.6875 47.953125 27.65625 50.640625 
Q 31.640625 53.328125 36.921875 53.328125 
Q 45.515625 53.328125 49.5625 48.390625 
Q 53.609375 43.453125 53.609375 33.015625 
L 53.609375 5.171875 
L 61.625 5.171875 
L 61.625 0 
L 36.8125 0 
L 36.8125 5.171875 
L 44.578125 5.171875 
L 44.578125 30.171875 
Q 44.578125 39.703125 42.25 43.1875 
Q 39.9375 46.6875 33.984375 46.6875 
Q 27.734375 46.6875 24.453125 42.140625 
Q 21.1875 37.59375 21.1875 28.90625 
L 21.1875 5.171875 
L 29 5.171875 
L 29 0 
z
" id="BitstreamVeraSerif-Roman-68"/>
     <path d="M 35.40625 51.90625 
L 52.203125 51.90625 
L 52.203125 5.171875 
L 60.6875 5.171875 
L 60.6875 0 
L 43.21875 0 
L 43.21875 9.1875 
Q 40.71875 4 36.765625 1.28125 
Q 32.8125 -1.421875 27.59375 -1.421875 
Q 18.953125 -1.421875 14.875 3.484375 
Q 10.796875 8.40625 10.796875 18.890625 
L 10.796875 46.6875 
L 2.6875 46.6875 
L 2.6875 51.90625 
L 19.828125 51.90625 
L 19.828125 21.6875 
Q 19.828125 12.203125 22.140625 8.6875 
Q 24.46875 5.171875 30.421875 5.171875 
Q 36.671875 5.171875 39.9375 9.765625 
Q 43.21875 14.359375 43.21875 23.09375 
L 43.21875 46.6875 
L 35.40625 46.6875 
z
" id="BitstreamVeraSerif-Roman-75"/>
     <path d="M 50 -19.671875 
L 50 -23.578125 
L 0 -23.578125 
L 0 -19.671875 
z
" id="BitstreamVeraSerif-Roman-5f"/>
     <path d="M 4.109375 0 
L 4.109375 5.171875 
L 12.203125 5.171875 
L 12.203125 46.6875 
L 3.609375 46.6875 
L 3.609375 51.90625 
L 21.1875 51.90625 
L 21.1875 42.671875 
Q 23.6875 47.953125 27.65625 50.640625 
Q 31.640625 53.328125 36.921875 53.328125 
Q 45.515625 53.328125 49.5625 48.390625 
Q 53.609375 43.453125 53.609375 33.015625 
L 53.609375 5.171875 
L 61.625 5.171875 
L 61.625 0 
L 36.8125 0 
L 36.8125 5.171875 
L 44.578125 5.171875 
L 44.578125 30.171875 
Q 44.578125 39.703125 42.234375 43.234375 
Q 39.890625 46.78125 33.984375 46.78125 
Q 27.734375 46.78125 24.453125 42.203125 
Q 21.1875 37.640625 21.1875 28.90625 
L 21.1875 5.171875 
L 29 5.171875 
L 29 0 
z
" id="BitstreamVeraSerif-Roman-6e"/>
     <path d="M 30.078125 3.421875 
Q 37.3125 3.421875 40.984375 9.125 
Q 44.671875 14.84375 44.671875 25.984375 
Q 44.671875 37.109375 40.984375 42.796875 
Q 37.3125 48.484375 30.078125 48.484375 
Q 22.859375 48.484375 19.171875 42.796875 
Q 15.484375 37.109375 15.484375 25.984375 
Q 15.484375 14.84375 19.1875 9.125 
Q 22.90625 3.421875 30.078125 3.421875 
M 30.078125 -1.421875 
Q 18.75 -1.421875 11.859375 6.078125 
Q 4.984375 13.578125 4.984375 25.984375 
Q 4.984375 38.375 11.84375 45.84375 
Q 18.703125 53.328125 30.078125 53.328125 
Q 41.453125 53.328125 48.3125 45.84375 
Q 55.171875 38.375 55.171875 25.984375 
Q 55.171875 13.578125 48.3125 6.078125 
Q 41.453125 -1.421875 30.078125 -1.421875 
" id="BitstreamVeraSerif-Roman-6f"/>
     <path d="M 20.515625 5.171875 
L 29 5.171875 
L 29 0 
L 2.875 0 
L 2.875 5.171875 
L 11.53125 5.171875 
L 11.53125 70.796875 
L 2.875 70.796875 
L 2.875 75.984375 
L 20.515625 75.984375 
z
" id="BitstreamVeraSerif-Roman-6c"/>
     <path d="M 19.09375 0 
L 19.09375 5.171875 
L 28.421875 5.171875 
L 28.421875 67.09375 
L 6.984375 67.09375 
L 6.984375 55.71875 
L 0.984375 55.71875 
L 0.984375 72.90625 
L 65.71875 72.90625 
L 65.71875 55.71875 
L 59.71875 55.71875 
L 59.71875 67.09375 
L 38.28125 67.09375 
L 38.28125 5.171875 
L 47.609375 5.171875 
L 47.609375 0 
z
" id="BitstreamVeraSerif-Roman-54"/>
     <path d="M 47.796875 52 
L 47.796875 39.015625 
L 42.625 39.015625 
Q 42.390625 42.875 40.484375 44.78125 
Q 38.578125 46.6875 34.90625 46.6875 
Q 28.265625 46.6875 24.71875 42.09375 
Q 21.1875 37.5 21.1875 28.90625 
L 21.1875 5.171875 
L 31.59375 5.171875 
L 31.59375 0 
L 4.109375 0 
L 4.109375 5.171875 
L 12.203125 5.171875 
L 12.203125 46.78125 
L 3.609375 46.78125 
L 3.609375 51.90625 
L 21.1875 51.90625 
L 21.1875 42.671875 
Q 23.828125 48.09375 27.96875 50.703125 
Q 32.125 53.328125 38.09375 53.328125 
Q 40.28125 53.328125 42.703125 52.984375 
Q 45.125 52.640625 47.796875 52 
" id="BitstreamVeraSerif-Roman-72"/>
    </defs>
    <g transform="translate(74.680078125 45.4)scale(0.15 -0.15)">
     <use xlink:href="#BitstreamVeraSerif-Roman-54"/>
     <use x="66.58984375" xlink:href="#BitstreamVeraSerif-Roman-6f"/>
     <use x="126.794921875" xlink:href="#BitstreamVeraSerif-Roman-70"/>
     <use x="190.80859375" xlink:href="#BitstreamVeraSerif-Roman-5f"/>
     <use x="240.80859375" xlink:href="#BitstreamVeraSerif-Roman-68"/>
     <use x="305.212890625" xlink:href="#BitstreamVeraSerif-Roman-61"/>
     <use x="364.83203125" xlink:href="#BitstreamVeraSerif-Roman-74"/>
     <use x="405.017578125" xlink:href="#BitstreamVeraSerif-Roman-20"/>
     <use x="436.8046875" xlink:href="#BitstreamVeraSerif-Roman-66"/>
     <use x="473.81640625" xlink:href="#BitstreamVeraSerif-Roman-75"/>
     <use x="538.220703125" xlink:href="#BitstreamVeraSerif-Roman-6e"/>
     <use x="602.625" xlink:href="#BitstreamVeraSerif-Roman-63"/>
     <use x="658.630859375" xlink:href="#BitstreamVeraSerif-Roman-74"/>
     <use x="698.81640625" xlink:href="#BitstreamVeraSerif-Roman-69"/>
     <use x="730.798828125" xlink:href="#BitstreamVeraSerif-Roman-6f"/>
     <use x="791.00390625" xlink:href="#BitstreamVeraSerif-Roman-6e"/>
     <use x="855.408203125" xlink:href="#BitstreamVeraSerif-Roman-20"/>
     <use x="887.1953125" xlink:href="#BitstreamVeraSerif-Roman-61"/>
     <use x="946.814453125" xlink:href="#BitstreamVeraSerif-Roman-6e"/>
     <use x="1011.21875" xlink:href="#BitstreamVeraSerif-Roman-64"/>
     <use x="1075.23242188" xlink:href="#BitstreamVeraSerif-Roman-20"/>
     <use x="1107.01953125" xlink:href="#BitstreamVeraSerif-Roman-69"/>
     <use x="1139.00195312" xlink:href="#BitstreamVeraSerif-Roman-74"/>
     <use x="1179.1875" xlink:href="#BitstreamVeraSerif-Roman-73"/>
     <use x="1230.50585938" xlink:href="#BitstreamVeraSerif-Roman-20"/>
     <use x="1262.29296875" xlink:href="#BitstreamVeraSerif-Roman-73"/>
     <use x="1313.61132812" xlink:href="#BitstreamVeraSerif-Roman-70"/>
     <use x="1377.625" xlink:href="#BitstreamVeraSerif-Roman-65"/>
     <use x="1436.8046875" xlink:href="#BitstreamVeraSerif-Roman-63"/>
     <use x="1492.81054688" xlink:href="#BitstreamVeraSerif-Roman-74"/>
     <use x="1532.99609375" xlink:href="#BitstreamVeraSerif-Roman-72"/>
     <use x="1580.79882812" xlink:href="#BitstreamVeraSerif-Roman-61"/>
     <use x="1640.41796875" xlink:href="#BitstreamVeraSerif-Roman-6c"/>
     <use x="1672.40039062" xlink:href="#BitstreamVeraSerif-Roman-20"/>
     <use x="1704.1875" xlink:href="#BitstreamVeraSerif-Roman-72"/>
     <use x="1751.99023438" xlink:href="#BitstreamVeraSerif-Roman-65"/>
     <use x="1811.16992188" xlink:href="#BitstreamVeraSerif-Roman-63"/>
     <use x="1867.17578125" xlink:href="#BitstreamVeraSerif-Roman-6f"/>
     <use x="1927.38085938" xlink:href="#BitstreamVeraSerif-Roman-6e"/>
     <use x="1991.78515625" xlink:href="#BitstreamVeraSerif-Roman-73"/>
     <use x="2043.10351562" xlink:href="#BitstreamVeraSerif-Roman-74"/>
     <use x="2083.2890625" xlink:href="#BitstreamVeraSerif-Roman-72"/>
     <use x="2131.09179688" xlink:href="#BitstreamVeraSerif-Roman-75"/>
     <use x="2195.49609375" xlink:href="#BitstreamVeraSerif-Roman-63"/>
     <use x="2251.50195312" xlink:href="#BitstreamVeraSerif-Roman-74"/>
     <use x="2291.6875" xlink:href="#BitstreamVeraSerif-Roman-69"/>
     <use x="2323.66992188" xlink:href="#BitstreamVeraSerif-Roman-6f"/>
     <use x="2383.875" xlink:href="#BitstreamVeraSerif-Roman-6e"/>
    </g>
   </g>
   <g id="legend_1">
    <g id="patch_7">
     <path d="M 367.536002 131.758069 
L 448.602 131.758069 
L 448.602 55.398 
L 367.536002 55.398 
z
" style="fill:#ffffff;stroke:#000000;stroke-linejoin:miter;"/>
    </g>
    <g id="line2d_36">
     <path d="M 374.533202 63.493198 
L 388.527602 63.493198 
" style="fill:none;stroke:#000000;stroke-linecap:square;"/>
    </g>
    <g id="line2d_37"/>
    <g id="text_12">
     <!-- Function -->
     <defs>
      <path d="M 5.515625 0 
L 5.515625 5.171875 
L 14.796875 5.171875 
L 14.796875 67.671875 
L 5.515625 67.671875 
L 5.515625 72.90625 
L 65.1875 72.90625 
L 65.1875 56.6875 
L 59.1875 56.6875 
L 59.1875 66.890625 
L 24.703125 66.890625 
L 24.703125 42.484375 
L 49.609375 42.484375 
L 49.609375 51.609375 
L 55.609375 51.609375 
L 55.609375 27.390625 
L 49.609375 27.390625 
L 49.609375 36.53125 
L 24.703125 36.53125 
L 24.703125 5.171875 
L 36.375 5.171875 
L 36.375 0 
z
" id="BitstreamVeraSerif-Roman-46"/>
     </defs>
     <g transform="translate(399.523201875 66.991798125)scale(0.09996 -0.09996)">
      <use xlink:href="#BitstreamVeraSerif-Roman-46"/>
      <use x="69.384765625" xlink:href="#BitstreamVeraSerif-Roman-75"/>
      <use x="133.7890625" xlink:href="#BitstreamVeraSerif-Roman-6e"/>
      <use x="198.193359375" xlink:href="#BitstreamVeraSerif-Roman-63"/>
      <use x="254.19921875" xlink:href="#BitstreamVeraSerif-Roman-74"/>
      <use x="294.384765625" xlink:href="#BitstreamVeraSerif-Roman-69"/>
      <use x="326.3671875" xlink:href="#BitstreamVeraSerif-Roman-6f"/>
      <use x="386.572265625" xlink:href="#BitstreamVeraSerif-Roman-6e"/>
     </g>
    </g>
    <g id="line2d_38">
     <path d="M 374.533202 78.165452 
L 388.527602 78.165452 
" style="fill:none;stroke:#0000ff;stroke-dasharray:6.000000,6.000000;stroke-dashoffset:0.0;"/>
    </g>
    <g id="line2d_39"/>
    <g id="text_13">
     <!-- N=4 -->
     <defs>
      <path d="M 4.890625 0 
L 4.890625 5.171875 
L 14.703125 5.171875 
L 14.703125 67.671875 
L 4.890625 67.671875 
L 4.890625 72.90625 
L 23.578125 72.90625 
L 67.28125 15.375 
L 67.28125 67.671875 
L 57.515625 67.671875 
L 57.515625 72.90625 
L 83.109375 72.90625 
L 83.109375 67.671875 
L 73.296875 67.671875 
L 73.296875 -1.421875 
L 67.390625 -1.421875 
L 20.703125 60.015625 
L 20.703125 5.171875 
L 30.515625 5.171875 
L 30.515625 0 
z
" id="BitstreamVeraSerif-Roman-4e"/>
      <path d="M 34.90625 24.703125 
L 34.90625 63.484375 
L 10.015625 24.703125 
z
M 56.390625 0 
L 23.1875 0 
L 23.1875 5.171875 
L 34.90625 5.171875 
L 34.90625 19.484375 
L 3.078125 19.484375 
L 3.078125 24.8125 
L 35.015625 74.21875 
L 44.671875 74.21875 
L 44.671875 24.703125 
L 58.59375 24.703125 
L 58.59375 19.484375 
L 44.671875 19.484375 
L 44.671875 5.171875 
L 56.390625 5.171875 
z
" id="BitstreamVeraSerif-Roman-34"/>
      <path d="M 10.59375 45.21875 
L 73.1875 45.21875 
L 73.1875 37.40625 
L 10.59375 37.40625 
z
M 10.59375 25.296875 
L 73.1875 25.296875 
L 73.1875 17.484375 
L 10.59375 17.484375 
z
" id="BitstreamVeraSerif-Roman-3d"/>
     </defs>
     <g transform="translate(399.523201875 81.664051875)scale(0.09996 -0.09996)">
      <use xlink:href="#BitstreamVeraSerif-Roman-4e"/>
      <use x="87.5" xlink:href="#BitstreamVeraSerif-Roman-3d"/>
      <use x="171.2890625" xlink:href="#BitstreamVeraSerif-Roman-34"/>
     </g>
    </g>
    <g id="line2d_40">
     <path d="M 374.533202 92.837706 
L 388.527602 92.837706 
" style="fill:none;stroke:#008000;stroke-dasharray:6.000000,6.000000;stroke-dashoffset:0.0;"/>
    </g>
    <g id="line2d_41"/>
    <g id="text_14">
     <!-- N=8 -->
     <defs>
      <path d="M 46.578125 19.921875 
Q 46.578125 27.734375 42.6875 32.046875 
Q 38.8125 36.375 31.78125 36.375 
Q 24.75 36.375 20.875 32.046875 
Q 17 27.734375 17 19.921875 
Q 17 12.0625 20.875 7.734375 
Q 24.75 3.421875 31.78125 3.421875 
Q 38.8125 3.421875 42.6875 7.734375 
Q 46.578125 12.0625 46.578125 19.921875 
M 44.578125 55.328125 
Q 44.578125 61.96875 41.203125 65.671875 
Q 37.84375 69.390625 31.78125 69.390625 
Q 25.78125 69.390625 22.390625 65.671875 
Q 19 61.96875 19 55.328125 
Q 19 48.640625 22.390625 44.921875 
Q 25.78125 41.21875 31.78125 41.21875 
Q 37.84375 41.21875 41.203125 44.921875 
Q 44.578125 48.640625 44.578125 55.328125 
M 39.3125 38.8125 
Q 47.609375 37.703125 52.25 32.6875 
Q 56.890625 27.6875 56.890625 19.921875 
Q 56.890625 9.671875 50.390625 4.125 
Q 43.890625 -1.421875 31.78125 -1.421875 
Q 19.734375 -1.421875 13.203125 4.125 
Q 6.6875 9.671875 6.6875 19.921875 
Q 6.6875 27.6875 11.328125 32.6875 
Q 15.96875 37.703125 24.3125 38.8125 
Q 16.9375 40.140625 13 44.40625 
Q 9.078125 48.6875 9.078125 55.328125 
Q 9.078125 64.109375 15.125 69.15625 
Q 21.1875 74.21875 31.78125 74.21875 
Q 42.390625 74.21875 48.4375 69.15625 
Q 54.5 64.109375 54.5 55.328125 
Q 54.5 48.6875 50.5625 44.40625 
Q 46.625 40.140625 39.3125 38.8125 
" id="BitstreamVeraSerif-Roman-38"/>
     </defs>
     <g transform="translate(399.523201875 96.336305625)scale(0.09996 -0.09996)">
      <use xlink:href="#BitstreamVeraSerif-Roman-4e"/>
      <use x="87.5" xlink:href="#BitstreamVeraSerif-Roman-3d"/>
      <use x="171.2890625" xlink:href="#BitstreamVeraSerif-Roman-38"/>
     </g>
    </g>
    <g id="line2d_42">
     <path d="M 374.533202 107.509959 
L 388.527602 107.509959 
" style="fill:none;stroke:#ff0000;stroke-dasharray:6.000000,6.000000;stroke-dashoffset:0.0;"/>
    </g>
    <g id="line2d_43"/>
    <g id="text_15">
     <!-- N=16 -->
     <defs>
      <path d="M 32.71875 3.421875 
Q 39.59375 3.421875 43.296875 8.46875 
Q 47.015625 13.53125 47.015625 23 
Q 47.015625 32.46875 43.296875 37.515625 
Q 39.59375 42.578125 32.71875 42.578125 
Q 25.734375 42.578125 22.0625 37.6875 
Q 18.40625 32.8125 18.40625 23.578125 
Q 18.40625 13.875 22.109375 8.640625 
Q 25.828125 3.421875 32.71875 3.421875 
M 16.796875 40.140625 
Q 20.125 43.796875 24.3125 45.59375 
Q 28.515625 47.40625 33.796875 47.40625 
Q 44.671875 47.40625 51 40.859375 
Q 57.328125 34.328125 57.328125 23 
Q 57.328125 11.921875 50.515625 5.25 
Q 43.703125 -1.421875 32.328125 -1.421875 
Q 19.96875 -1.421875 13.328125 7.78125 
Q 6.6875 17 6.6875 34.078125 
Q 6.6875 53.21875 14.546875 63.71875 
Q 22.40625 74.21875 36.71875 74.21875 
Q 40.578125 74.21875 44.828125 73.484375 
Q 49.078125 72.75 53.515625 71.296875 
L 53.515625 59.28125 
L 48 59.28125 
Q 47.40625 64.203125 44.234375 66.796875 
Q 41.0625 69.390625 35.6875 69.390625 
Q 26.21875 69.390625 21.578125 62.203125 
Q 16.9375 55.03125 16.796875 40.140625 
" id="BitstreamVeraSerif-Roman-36"/>
     </defs>
     <g transform="translate(399.523201875 111.008559375)scale(0.09996 -0.09996)">
      <use xlink:href="#BitstreamVeraSerif-Roman-4e"/>
      <use x="87.5" xlink:href="#BitstreamVeraSerif-Roman-3d"/>
      <use x="171.2890625" xlink:href="#BitstreamVeraSerif-Roman-31"/>
      <use x="234.912109375" xlink:href="#BitstreamVeraSerif-Roman-36"/>
     </g>
    </g>
    <g id="line2d_44">
     <path d="M 374.533202 122.182213 
L 388.527602 122.182213 
" style="fill:none;stroke:#00bfbf;stroke-dasharray:6.000000,6.000000;stroke-dashoffset:0.0;"/>
    </g>
    <g id="line2d_45"/>
    <g id="text_16">
     <!-- N=32 -->
     <defs>
      <path d="M 9.71875 69.828125 
Q 15.4375 71.96875 20.671875 73.09375 
Q 25.921875 74.21875 30.515625 74.21875 
Q 41.21875 74.21875 47.21875 69.59375 
Q 53.21875 64.984375 53.21875 56.78125 
Q 53.21875 50.203125 49.0625 45.78125 
Q 44.921875 41.359375 37.3125 39.796875 
Q 46.296875 38.53125 51.25 33.28125 
Q 56.203125 28.03125 56.203125 19.671875 
Q 56.203125 9.46875 49.34375 4.015625 
Q 42.484375 -1.421875 29.59375 -1.421875 
Q 23.875 -1.421875 18.421875 -0.1875 
Q 12.984375 1.03125 7.625 3.515625 
L 7.625 17.671875 
L 13.09375 17.671875 
Q 13.578125 10.640625 17.828125 7.03125 
Q 22.078125 3.421875 29.78125 3.421875 
Q 37.25 3.421875 41.578125 7.734375 
Q 45.90625 12.0625 45.90625 19.578125 
Q 45.90625 28.171875 41.453125 32.59375 
Q 37.015625 37.015625 28.421875 37.015625 
L 23.78125 37.015625 
L 23.78125 42 
L 26.21875 42 
Q 34.765625 42 39.03125 45.53125 
Q 43.3125 49.078125 43.3125 56.203125 
Q 43.3125 62.59375 39.796875 65.984375 
Q 36.28125 69.390625 29.6875 69.390625 
Q 23.09375 69.390625 19.453125 66.265625 
Q 15.828125 63.140625 15.1875 56.984375 
L 9.71875 56.984375 
z
" id="BitstreamVeraSerif-Roman-33"/>
      <path d="M 12.796875 55.515625 
L 7.328125 55.515625 
L 7.328125 68.5 
Q 12.546875 71.296875 17.84375 72.75 
Q 23.140625 74.21875 28.21875 74.21875 
Q 39.59375 74.21875 46.1875 68.703125 
Q 52.78125 63.1875 52.78125 53.71875 
Q 52.78125 43.015625 37.84375 28.125 
Q 36.671875 27 36.078125 26.421875 
L 17.671875 8.015625 
L 48.09375 8.015625 
L 48.09375 17 
L 53.8125 17 
L 53.8125 0 
L 6.78125 0 
L 6.78125 5.328125 
L 28.90625 27.390625 
Q 36.234375 34.71875 39.359375 40.84375 
Q 42.484375 46.96875 42.484375 53.71875 
Q 42.484375 61.078125 38.640625 65.234375 
Q 34.8125 69.390625 28.078125 69.390625 
Q 21.09375 69.390625 17.28125 65.921875 
Q 13.484375 62.453125 12.796875 55.515625 
" id="BitstreamVeraSerif-Roman-32"/>
     </defs>
     <g transform="translate(399.523201875 125.680813125)scale(0.09996 -0.09996)">
      <use xlink:href="#BitstreamVeraSerif-Roman-4e"/>
      <use x="87.5" xlink:href="#BitstreamVeraSerif-Roman-3d"/>
      <use x="171.2890625" xlink:href="#BitstreamVeraSerif-Roman-33"/>
      <use x="234.912109375" xlink:href="#BitstreamVeraSerif-Roman-32"/>
     </g>
    </g>
   </g>
  </g>
 </g>
 <defs>
  <clipPath id="p9087d4bee0">
   <rect height="403.2" width="390.6" x="63.0" y="50.4"/>
  </clipPath>
 </defs>
</svg>
